# xmcd CD database file
#
# Track frame offsets:
#	150
#	24255
#	41069
#	58968
#	90768
#	126982
#	161350
#	193247
#	208228
#	238707
#	251730
#	265504
#	282809
#	298954
#	313190
#
# Disc length: 4460 seconds
#
# Revision: 0
# Processed by: cddbd v1.5.2PL0 Copyright (c) Steve Scherf et al.
# Submitted via: CDex 1.70beta2
#
DISCID=e0116a0f
DTITLE=Stan Getz - Stan Getz Quintets Disc 2
DYEAR=1900
DGENRE=Jazz
TTITLE0=Willow Weep For Me
TTITLE1=The Nearness Of You
TTITLE2=Pot Luck
TTITLE3=Minor Blues
TTITLE4=Fascinating Rhythm
TTITLE5=I don't Know What Time It was
TTITLE6=Tangerine
TTITLE7=Pot Luck single version
TTITLE8=It Don't Mean A Thing alternate version
TTITLE9=I Hadn't Anyone 'Til You
TTITLE10=Down By the Sycamore Tree
TTITLE11=With The Wind And The Rain In Your Hair
TTITLE12=Nobody else But Me
TTITLE13=It hadn't Anyone 'Til You alternate take
TTITLE14=Nobody Else But Me alternate take
EXTD=
EXTT0=
EXTT1=
EXTT2=
EXTT3=
EXTT4=
EXTT5=
EXTT6=
EXTT7=
EXTT8=
EXTT9=
EXTT10=
EXTT11=
EXTT12=
EXTT13=
EXTT14=
PLAYORDER=
